<svg id="visual" viewBox="0 0 900 600" width="900" height="600" xmlns="http://www.w3.org/2000/svg" xmlns:xlink="http://www.w3.org/1999/xlink" version="1.1"><rect x="0" y="0" width="900" height="600" fill="#002233"></rect><path d="M0 429L21.5 426.5C43 424 86 419 128.8 433.3C171.7 447.7 214.3 481.3 257.2 485.3C300 489.3 343 463.7 385.8 463.3C428.7 463 471.3 488 514.2 488.2C557 488.3 600 463.7 642.8 449.7C685.7 435.7 728.3 432.3 771.2 438.5C814 444.7 857 460.3 878.5 468.2L900 476L900 601L878.5 601C857 601 814 601 771.2 601C728.3 601 685.7 601 642.8 601C600 601 557 601 514.2 601C471.3 601 428.7 601 385.8 601C343 601 300 601 257.2 601C214.3 601 171.7 601 128.8 601C86 601 43 601 21.5 601L0 601Z" fill="#0066FF" stroke-linecap="round" stroke-linejoin="miter"></path></svg>